<?xml version="1.0" encoding="UTF-8"?>
<svg width="60px" height="49px" viewBox="0 0 60 49" version="1.1" xmlns="http://www.w3.org/2000/svg" xmlns:xlink="http://www.w3.org/1999/xlink">
    <!-- Generator: Sketch 55.2 (78181) - https://sketchapp.com -->
    <title>002-email-envelope copy</title>
    <desc>Created with Sketch.</desc>
    <g id="Website" stroke="none" stroke-width="1" fill="none" fill-rule="evenodd">
        <g id="Desktop-HD-Copy-7" transform="translate(-154.000000, -490.000000)" fill="#6FC5BD" fill-rule="nonzero">
            <g id="002-email-envelope-copy" transform="translate(154.000000, 490.000000)">
                <path d="M0.827313692,41.0091161 C0.784887348,41.0937608 0.67882149,41.1364991 0.509116118,41.1364991 L0.318197574,41.1364991 C0.106065858,41.0091161 0,40.8609359 0,40.6909185 L0,15.2987522 C0,15.0866205 0.0848526863,14.9381282 0.254558059,14.8532756 C0.424263432,14.8108492 0.593968804,14.8108492 0.763674177,14.8532756 L17.6917851,24.5264818 C17.8614905,24.6111265 17.9463432,24.7387175 17.9463432,24.9083189 C17.9463432,25.1205546 17.8827036,25.2477296 17.7554246,25.290156 L0.827313692,41.0091161 Z M57.7210399,48.0094627 C57.8484229,48.1792721 57.8908492,48.3488735 57.8484229,48.5185789 C57.7210399,48.7306066 57.5516464,48.8370884 57.3393068,48.8370884 L1.97282496,48.8370884 C1.67584055,48.8370884 1.35764298,48.7309185 1.01823224,48.5185789 C0.848526863,48.4337262 0.763674177,48.3063432 0.763674177,48.1367418 C0.763674177,47.9669324 0.827313692,47.8396534 0.954592721,47.7549047 L22.5283882,27.7083536 C22.6980936,27.5387522 22.8890121,27.517435 23.1011438,27.644818 L28.8287002,30.8907452 C29.6348007,31.3570191 30.4620104,31.3570191 31.3105373,30.8907452 L37.8017678,27.0720624 C38.0564298,26.902253 38.2473484,26.9235702 38.3749393,27.1355979 L57.7210399,48.0094627 Z M59.6939688,14.4714385 C59.8635702,14.5562912 59.9484229,14.7047834 59.9484229,14.9169151 L59.9484229,41.7726863 C59.9484229,41.984922 59.842253,42.1334142 59.6299133,42.2182669 C59.5879029,42.2606932 59.5238475,42.2818024 59.4389948,42.2818024 C59.3118198,42.2818024 59.1847487,42.2182669 59.0571577,42.0908839 L42.9566724,24.7174003 C42.8294974,24.5898094 42.7870711,24.4628423 42.8294974,24.3355633 C42.8294974,24.1658579 42.892825,24.0385789 43.0204159,23.9537262 L59.1847487,14.4714385 C59.3121317,14.3441594 59.4817331,14.3441594 59.6939688,14.4714385 Z M57.9119584,0.0889081456 C58.5060312,0.0889081456 58.9938302,0.27982669 59.3756672,0.661663778 C59.7575043,1.04350087 59.9484229,1.51019064 59.9484229,2.0617331 L59.9484229,8.17112652 C59.9484229,8.46811092 59.7999307,8.61660312 59.5030503,8.61660312 C59.2483882,8.65902946 59.0150433,8.76509532 58.8030156,8.93480069 L30.292513,25.6718891 C30.2500867,25.7143154 30.16513,25.7356326 30.037851,25.7356326 C29.9105719,25.7356326 29.8257192,25.7143154 29.7835009,25.6718891 L0.381837088,8.93480069 C0.127279029,8.76509532 0,8.59538995 0,8.42568458 L0,2.0617331 C0,1.51019064 0.190918544,1.04350087 0.572755633,0.661663778 C0.954592721,0.27982669 1.4212825,0.0889081456 1.97282496,0.0889081456 L57.9119584,0.0889081456 L57.9119584,0.0889081456 Z" id="Shape"></path>
            </g>
        </g>
    </g>
</svg>