<?xml version="1.0" encoding="UTF-8"?>
<svg width="60px" height="59px" viewBox="0 0 60 59" version="1.1" xmlns="http://www.w3.org/2000/svg" xmlns:xlink="http://www.w3.org/1999/xlink">
    <!-- Generator: Sketch 55.2 (78181) - https://sketchapp.com -->
    <title>github-logo</title>
    <desc>Created with Sketch.</desc>
    <g id="Website" stroke="none" stroke-width="1" fill="none" fill-rule="evenodd">
        <g id="Desktop-HD-Copy-7" transform="translate(-154.000000, -248.000000)" fill="#6FC5BD" fill-rule="nonzero">
            <g id="github-logo" transform="translate(154.000000, 248.000000)">
                <path d="M55.9178132,14.9758087 C53.2379043,10.3841002 49.602779,6.74883827 45.0114806,4.06920273 C40.4194989,1.38943052 35.4064237,0.0498861048 29.9687016,0.0498861048 C24.5316629,0.0498861048 19.5169476,1.38984055 14.9259226,4.06920273 C10.3342141,6.74870159 6.69922551,10.3841002 4.01931663,14.9758087 C1.33981777,19.5673804 0,24.5814123 0,30.0177677 C0,36.5480638 1.90523918,42.4202733 5.71667426,47.6358998 C9.52769932,52.8519362 14.4509795,56.4612301 20.4861048,58.4641913 C21.1886105,58.5945786 21.708656,58.5028702 22.0467882,58.1913895 C22.3850569,57.8794989 22.5539863,57.4888838 22.5539863,57.0211845 C22.5539863,56.9431435 22.5472893,56.2410478 22.5343052,54.9140774 C22.5209112,53.5871071 22.5146241,52.4294761 22.5146241,51.4417312 L21.6170843,51.5969932 C21.0448292,51.7018223 20.3229157,51.7462415 19.451344,51.7336674 C18.5801822,51.7215034 17.6758087,51.630205 16.7394533,51.4604556 C15.8026879,51.2922096 14.9313895,50.9020046 14.1248747,50.2906606 C13.3187699,49.6793166 12.7465148,48.8790888 12.408246,47.8912073 L12.018041,46.9932574 C11.7579499,46.3954442 11.3484738,45.731344 10.7890661,45.0034169 C10.2296583,44.2748064 9.66396355,43.7808656 9.09170843,43.5207745 L8.81849658,43.3251936 C8.63644647,43.1952164 8.46751708,43.038451 8.31129841,42.8565376 C8.1552164,42.6746241 8.03835991,42.492574 7.96031891,42.3102506 C7.88214123,42.1277904 7.94692483,41.9781321 8.15535308,41.8607289 C8.36378132,41.7433257 8.74045558,41.6863326 9.28701595,41.6863326 L10.0671526,41.8029157 C10.5874715,41.9071982 11.2310706,42.2186788 11.9987699,42.7392711 C12.7660592,43.2594533 13.3968109,43.9357175 13.8911617,44.7677904 C14.489795,45.8346697 15.2110251,46.6476082 16.0569021,47.2070159 C16.9020957,47.7664237 17.7542597,48.0456492 18.612574,48.0456492 C19.4708884,48.0456492 20.2122096,47.9805923 20.8368109,47.8511617 C21.4607289,47.7210478 22.0461048,47.525467 22.5926651,47.2655125 C22.8267882,45.5218223 23.4642369,44.1822779 24.5044647,43.2459226 C23.0218223,43.0901139 21.6888383,42.8554442 20.5048292,42.5434169 C19.3215034,42.2309795 18.0986788,41.723918 16.8371754,41.0208656 C15.5749886,40.3187699 14.5279271,39.4469248 13.6957175,38.4068337 C12.8633713,37.3661959 12.1802733,36 11.6473804,34.3094761 C11.1142141,32.6182688 10.8475626,30.6673804 10.8475626,28.4562642 C10.8475626,25.3079727 11.8753531,22.6288838 13.9305239,20.4174943 C12.9677904,18.0505695 13.0586788,15.3971754 14.2034624,12.4575854 C14.9579043,12.2231891 16.0767198,12.3990888 17.5593622,12.9841913 C19.0422779,13.5695672 20.1280182,14.0710251 20.8176765,14.4867882 C21.5073349,14.9024146 22.0599089,15.2546241 22.4762187,15.5402733 C24.8960364,14.8641458 27.3932118,14.5260137 29.9684282,14.5260137 C32.5436446,14.5260137 35.0413667,14.8641458 37.4613212,15.5402733 L38.9441002,14.6041913 C39.9580866,13.97959 41.1554897,13.4071982 42.5334396,12.8868793 C43.9122096,12.3668337 44.9665148,12.2235991 45.695262,12.4579954 C46.865467,15.3977221 46.9697494,18.0509795 46.0067426,20.4179043 C48.0617768,22.6292938 49.0899772,25.3090661 49.0899772,28.4566743 C49.0899772,30.6677904 48.822369,32.6248292 48.2900228,34.3290205 C47.7569932,36.0334852 47.0680182,37.3983144 46.2228246,38.4263781 C45.3766743,39.4543052 44.3229157,40.3193166 43.0614123,41.0212756 C41.7996355,41.7237813 40.5764009,42.2308428 39.3930752,42.5432802 C38.2092027,42.8557175 36.8762187,43.0905239 35.3935763,43.2466059 C36.7458314,44.4168109 37.4220957,46.2639636 37.4220957,48.7872437 L37.4220957,57.0200911 C37.4220957,57.4877904 37.584738,57.8782688 37.9102961,58.1902961 C38.2354442,58.5017768 38.7489294,58.5934852 39.4514351,58.4629613 C45.4873804,56.4602733 50.4106606,52.8508428 54.221549,47.6348064 C58.0320273,42.41918 59.9379499,36.5469704 59.9379499,30.0166743 C59.9365831,24.5810023 58.596082,19.5673804 55.9178132,14.9758087 Z" id="Path"></path>
            </g>
        </g>
    </g>
</svg>