<?xml version="1.0" encoding="UTF-8"?>
<svg width="60px" height="60px" viewBox="0 0 60 60" version="1.1" xmlns="http://www.w3.org/2000/svg" xmlns:xlink="http://www.w3.org/1999/xlink">
    <!-- Generator: Sketch 55.2 (78181) - https://sketchapp.com -->
    <title>linkedin</title>
    <desc>Created with Sketch.</desc>
    <g id="Website" stroke="none" stroke-width="1" fill="none" fill-rule="evenodd">
        <g id="Desktop-HD-Copy-7" transform="translate(-154.000000, -331.000000)" fill="#6FC5BD" fill-rule="nonzero">
            <g id="linkedin" transform="translate(154.000000, 331.000000)">
                <path d="M54.5725131,0 L5.42748691,0 C2.43,0 0,2.43 0,5.42748691 L0,54.572356 C0,57.57 2.43,60 5.42748691,60 L54.572356,60 C57.57,60 60,57.57 60,54.572356 L60,5.42748691 C60,2.43 57.57,0 54.5725131,0 Z M18.5665445,51.8079581 C18.5665445,52.6803141 17.8594241,53.3874346 16.9870681,53.3874346 L10.2636126,53.3874346 C9.39125654,53.3874346 8.68413613,52.6803141 8.68413613,51.8079581 L8.68413613,23.6235079 C8.68413613,22.7511518 9.39125654,22.0440314 10.2636126,22.0440314 L16.9870681,22.0440314 C17.8594241,22.0440314 18.5665445,22.7511518 18.5665445,23.6235079 L18.5665445,51.8079581 Z M13.6253403,19.3872251 C10.0977487,19.3872251 7.23801047,16.5274869 7.23801047,12.9998953 C7.23801047,9.47230366 10.0977487,6.61256545 13.6253403,6.61256545 C17.1529319,6.61256545 20.0126702,9.47230366 20.0126702,12.9998953 C20.0126702,16.5274869 17.153089,19.3872251 13.6253403,19.3872251 Z M53.7031456,51.9351832 C53.7031456,52.7371728 53.0528796,53.3874346 52.2508901,53.3874346 L45.0361257,53.3874346 C44.2341361,53.3874346 43.5838743,52.7371728 43.5838743,51.9351832 L43.5838743,38.7150785 C43.5838743,36.7429319 44.162356,30.0730366 38.43,30.0730366 C33.9835602,30.0730366 33.0816754,34.638377 32.9005759,36.6871728 L32.9005759,51.9351832 C32.9005759,52.7371728 32.2504712,53.3874346 31.4483246,53.3874346 L24.4704188,53.3874346 C23.6684293,53.3874346 23.0181675,52.7371728 23.0181675,51.9351832 L23.0181675,23.4962827 C23.0181675,22.6942932 23.6684293,22.0440314 24.4704188,22.0440314 L31.4483246,22.0440314 C32.2503141,22.0440314 32.9005759,22.6942932 32.9005759,23.4962827 L32.9005759,25.9551832 C34.5493194,23.4808901 36.9995812,21.5710995 42.2165969,21.5710995 C53.769267,21.5710995 53.7031456,32.3641885 53.7031456,38.2944503 L53.7031456,51.9351832 L53.7031456,51.9351832 Z" id="Shape"></path>
            </g>
        </g>
    </g>
</svg>