<?xml version="1.0" encoding="UTF-8"?>
<svg width="60px" height="60px" viewBox="0 0 60 60" version="1.1" xmlns="http://www.w3.org/2000/svg" xmlns:xlink="http://www.w3.org/1999/xlink">
    <!-- Generator: Sketch 55.2 (78181) - https://sketchapp.com -->
    <title>001-phone-receiver</title>
    <desc>Created with Sketch.</desc>
    <g id="Website" stroke="none" stroke-width="1" fill="none" fill-rule="evenodd">
        <g id="Desktop-HD-Copy-7" transform="translate(-154.000000, -563.000000)" fill="#6FC5BD" fill-rule="nonzero">
            <g id="001-phone-receiver" transform="translate(154.000000, 563.000000)">
                <path d="M59.8787565,47.2671503 C60.0056995,48.2396891 59.7093264,49.085285 58.9908808,49.8039378 L50.5560622,58.1750259 C50.175544,58.5978238 49.6788601,58.957513 49.0658031,59.2531606 C48.4527461,59.5492228 47.8503627,59.7394819 47.2586528,59.8239378 C47.2163731,59.8239378 47.0892228,59.8348187 46.8777202,59.8559585 C46.6666321,59.8769948 46.3918135,59.887772 46.0535751,59.887772 C45.2500518,59.887772 43.9498446,59.7503627 42.1529534,59.4754404 C40.3560622,59.2005181 38.1576166,58.5239378 35.5576166,57.4460104 C32.9569948,56.3678756 30.0080829,54.7504663 26.7103627,52.5944041 C23.4126425,50.4384456 19.9033161,47.4786528 16.1826943,43.7156477 C13.2231088,40.798342 10.7708808,38.0078756 8.82601036,35.3443523 C6.8811399,32.6806218 5.31678756,30.2178238 4.13295337,27.9558549 C2.94901554,25.693886 2.0611399,23.6433161 1.4692228,21.8041451 C0.877305699,19.9649741 0.475647668,18.3794819 0.264248705,17.0476684 C0.0528497409,15.7158549 -0.0317098446,14.6694301 0.0105699482,13.9083938 C0.0528497409,13.1473575 0.0739896373,12.7245596 0.0739896373,12.64 C0.158549223,12.0480829 0.34880829,11.4455959 0.644766839,10.8325389 C0.940725389,10.2194819 1.30010363,9.7226943 1.72290155,9.34217617 L10.1577202,0.907357513 C10.7496373,0.315440415 11.426114,0.0194818653 12.1871503,0.0194818653 C12.7367876,0.0194818653 13.2230052,0.178031088 13.6458031,0.495129534 C14.068601,0.812227979 14.4279793,1.20331606 14.7239378,1.66839378 L21.5098446,14.5425907 C21.8903627,15.2190674 21.9960622,15.9589637 21.826943,16.7622798 C21.6578238,17.5655959 21.2984456,18.2420725 20.7488083,18.7917098 L17.6412435,21.8992746 C17.5566839,21.9838342 17.4826943,22.1212435 17.4192746,22.3115026 C17.3558549,22.5017617 17.3241451,22.6603109 17.3241451,22.7871503 C17.4932642,23.6750259 17.8737824,24.6897409 18.4656995,25.8312953 C18.973057,26.8460104 19.7552332,28.0826943 20.812228,29.5413472 C21.8692228,31 23.3701554,32.6805181 25.3150259,34.5831088 C27.2176166,36.5281865 28.9088083,38.0394819 30.388601,39.1178238 C31.8680829,40.195544 33.1051813,40.988601 34.0987565,41.4959585 C35.0923316,42.0033161 35.8533679,42.3098446 36.3817617,42.4152332 L37.1743005,42.573886 C37.2588601,42.573886 37.3965803,42.5420725 37.5866321,42.4787565 C37.7768912,42.4152332 37.9143005,42.3413472 37.9989637,42.2566839 L41.6137824,38.578342 C42.3752332,37.9019689 43.2626943,37.5637306 44.277513,37.5637306 C44.9964767,37.5637306 45.566943,37.6904663 45.9897409,37.9442487 L46.053057,37.9442487 L58.2929534,45.1740933 C59.1811399,45.7241451 59.7095337,46.4215544 59.8787565,47.2671503 Z" id="Path"></path>
            </g>
        </g>
    </g>
</svg>