<?xml version="1.0" encoding="UTF-8"?>
<svg width="60px" height="51px" viewBox="0 0 60 51" version="1.1" xmlns="http://www.w3.org/2000/svg" xmlns:xlink="http://www.w3.org/1999/xlink">
    <!-- Generator: Sketch 55.2 (78181) - https://sketchapp.com -->
    <title>004-twitter-bird-logo</title>
    <desc>Created with Sketch.</desc>
    <g id="Website" stroke="none" stroke-width="1" fill="none" fill-rule="evenodd">
        <g id="Desktop-HD-Copy-7" transform="translate(-154.000000, -415.000000)" fill="#6FC5BD" fill-rule="nonzero">
            <g id="004-twitter-bird-logo" transform="translate(154.000000, 415.000000)">
                <path d="M59.9959563,5.97617486 C59.5946448,6.82338798 58.8477596,7.89355191 57.7553005,9.18666667 C56.6628415,10.4797814 55.3139891,11.6168306 53.7086339,12.5978142 C53.753224,12.9545355 53.786776,13.2889617 53.8089617,13.6010929 C53.8313661,13.913224 53.8425137,14.2476503 53.8425137,14.6043716 C53.8425137,16.4771585 53.6307104,18.528306 53.2072131,20.7578142 C52.7837158,22.9873224 52.1256831,25.2502732 51.2342077,27.5466667 C50.3424044,29.8430601 49.2163934,32.1171585 47.8565027,34.3689617 C46.4963934,36.620765 44.8801093,38.7053552 43.0072131,40.6227322 C41.1345355,42.5401093 39.0053552,44.2348634 36.6197814,45.7063388 C34.2344262,47.1778142 31.5698361,48.2702732 28.6269945,48.983388 C25.1935519,49.7416393 21.7601093,50.1204372 18.3266667,50.1204372 C16.8551913,50.1204372 15.3279781,50.0424044 13.7450273,49.8863388 C12.1620765,49.7299454 10.5791257,49.4404372 8.99617486,49.0168306 C7.41322404,48.593224 5.85256831,48.0246995 4.31420765,47.3112568 C2.7757377,46.5981421 1.33770492,45.6838251 0,44.5689617 C3.47803279,45.0594536 6.76655738,44.780765 9.86557377,43.7328962 C12.9645902,42.6850273 15.784918,41.2027322 18.3265574,39.2853552 C17.7468852,39.2853552 16.9777049,39.2292896 16.0190164,39.1181421 C15.0603279,39.0065574 14.0347541,38.6722404 12.9422951,38.1148634 C11.8498361,37.5571585 10.7462295,36.6991257 9.63147541,35.5396721 C8.51672131,34.3806557 7.5357377,32.7527869 6.68852459,30.6570492 C6.95606557,30.7459016 7.32393443,30.8019672 7.79213115,30.8242623 C8.26032787,30.8465574 8.76196721,30.8354098 9.29704918,30.7904918 C9.83213115,30.7455738 10.3560656,30.6901639 10.8688525,30.6236066 C11.3816393,30.5567213 11.8386885,30.4786885 12.24,30.3891803 C9.92131148,29.675847 8.1042623,28.7281967 6.78885246,27.5465574 C5.47344262,26.3648087 4.50360656,25.1498361 3.87934426,23.9013115 C3.25508197,22.6527869 2.86491803,21.4712568 2.70885246,20.3565027 C2.55278689,19.2417486 2.4747541,18.3722404 2.4747541,17.7479781 C3.05442623,18.1046995 3.90163934,18.4837158 5.01639344,18.8850273 C6.13114754,19.2863388 7.13442623,19.4646995 8.02622951,19.4201093 C6.19803279,17.9040437 4.87147541,16.3991257 4.04655738,14.9053552 C3.22163934,13.4115847 2.73114754,11.9624044 2.57508197,10.5578142 C2.41901639,9.15322404 2.49704918,7.7820765 2.80918033,6.44437158 C3.12131148,5.10666667 3.54491803,3.81355191 4.08,2.56502732 C6.53245902,5.32961749 8.97377049,7.57027322 11.4039344,9.28699454 C13.8340984,11.0037158 16.1527869,12.3302732 18.36,13.2666667 C20.5672131,14.2030601 22.6295082,14.8273224 24.5468852,15.1394536 C26.4642623,15.4515847 28.1363934,15.6076503 29.5632787,15.6076503 C29.2957377,13.8240437 29.2844809,12.1296175 29.5295082,10.5243716 C29.7747541,8.91912568 30.2878689,7.44765027 31.0678689,6.10994536 C31.8485246,4.77224044 32.8850273,3.62404372 34.1781421,2.66535519 C35.4712568,1.70666667 37.0096175,0.982076503 38.7933333,0.491584699 C40.9780328,-0.132677596 43.0739891,-0.110382514 45.0802186,0.558469945 C47.0868852,1.2273224 48.8034973,2.38677596 50.2304918,4.03650273 C50.8546448,3.99191257 51.8357377,3.79125683 53.1736612,3.43453552 C54.5111475,3.07781421 56.1836066,2.29748634 58.1898361,1.09355191 C58.0559563,1.53945355 57.8442623,2.08568306 57.5545355,2.73224044 C57.2646995,3.37879781 56.896612,4.03650273 56.4507104,4.70535519 C56.0048087,5.37420765 55.4696175,6.02076503 54.8454645,6.64502732 C54.2210929,7.26928962 53.5077596,7.7820765 52.7051366,8.18338798 C53.3738798,8.04961749 54.1097268,7.89355191 54.9120219,7.71519126 C55.580765,7.5368306 56.3614208,7.30273224 57.253224,7.01289617 C58.1450273,6.72306011 59.0595628,6.37748634 59.9959563,5.97617486 Z" id="Path"></path>
            </g>
        </g>
    </g>
</svg>