<?xml version="1.0" encoding="UTF-8"?>
<svg width="300px" height="300px" viewBox="0 0 400 400" version="1.1" xmlns="http://www.w3.org/2000/svg" xmlns:xlink="http://www.w3.org/1999/xlink">
    <!-- Generator: Sketch 55.2 (78181) - https://sketchapp.com -->
    <title>Group 2</title>
    <desc>Created with Sketch.</desc>
    <g id="Page-1" stroke="none" stroke-width="1" fill="none" fill-rule="evenodd">
        <g id="Artboard-Copy-22" transform="translate(-200.000000, -120.000000)" fill="#6FC5BD">
            <g id="Group-2" transform="translate(200.049130, 120.000000)">
                <path d="M197.95087,42 L197.95087,79.95087 C177.451203,78.9414327 161.009437,62.4996673 160,42 L197.95087,42 Z M201.95087,42 L239.90174,42 C238.892303,62.4996673 222.450537,78.9414327 201.95087,79.95087 L201.95087,42 Z M80,42 L159.90174,42 C158.859677,63.1622231 141.37161,80 119.95087,80 C98.5301295,80 81.0420626,63.1622231 80,42 Z M80,38 C81.0420626,16.8377769 98.5301295,0 119.95087,0 C141.37161,0 158.859677,16.8377769 159.90174,38 L80,38 Z M-1.32160949e-12,42 L79.90174,42 C78.8596774,63.1622231 61.3716104,80 39.95087,80 C18.5301295,80 1.04206262,63.1622231 -1.33854039e-12,42 Z M-1.33898448e-12,38 C1.04206262,16.8377769 18.5301295,0 39.95087,0 C61.3716104,0 78.8596774,16.8377769 79.90174,38 L-1.34910833e-12,38 Z M160,38 C161.042063,16.8377769 178.53013,0 199.95087,0 C221.37161,0 238.859677,16.8377769 239.90174,38 L160,38 Z M240,42 L319.90174,42 C318.859677,63.1622231 301.37161,80 279.95087,80 C258.53013,80 241.042063,63.1622231 240,42 Z M240,38 C241.042063,16.8377769 258.53013,0 279.95087,0 C301.37161,0 318.859677,16.8377769 319.90174,38 L240,38 Z M320,42 L399.90174,42 C398.859677,63.1622231 381.37161,80 359.95087,80 C338.53013,80 321.042063,63.1622231 320,42 Z M320,38 C321.042063,16.8377769 338.53013,0 359.95087,0 C381.37161,0 398.859677,16.8377769 399.90174,38 L320,38 Z" id="Combined-Shape"></path>
                <path d="M197.95087,159.95087 C176.788647,158.908807 159.95087,141.42074 159.95087,120 C159.95087,98.5792596 176.788647,81.0911926 197.95087,80.04913 L197.95087,159.95087 Z M201.95087,80.04913 C223.113093,81.0911926 239.95087,98.5792596 239.95087,120 C239.95087,141.42074 223.113093,158.908807 201.95087,159.95087 L201.95087,80.04913 Z M197.95087,239.95087 C176.788647,238.908807 159.95087,221.42074 159.95087,200 C159.95087,178.57926 176.788647,161.091193 197.95087,160.04913 L197.95087,239.95087 Z M201.95087,160.04913 C223.113093,161.091193 239.95087,178.57926 239.95087,200 C239.95087,221.42074 223.113093,238.908807 201.95087,239.95087 L201.95087,160.04913 Z M197.95087,319.95087 C176.788647,318.908807 159.95087,301.42074 159.95087,280 C159.95087,258.57926 176.788647,241.091193 197.95087,240.04913 L197.95087,319.95087 Z M201.95087,240.04913 C223.113093,241.091193 239.95087,258.57926 239.95087,280 C239.95087,301.42074 223.113093,318.908807 201.95087,319.95087 L201.95087,240.04913 Z M197.95087,399.95087 C176.788647,398.908807 159.95087,381.42074 159.95087,360 C159.95087,338.57926 176.788647,321.091193 197.95087,320.04913 L197.95087,399.95087 Z M201.95087,320.04913 C223.113093,321.091193 239.95087,338.57926 239.95087,360 C239.95087,381.42074 223.113093,398.908807 201.95087,399.95087 L201.95087,320.04913 Z" id="Combined-Shape"></path>
            </g>
        </g>
    </g>
</svg>